<svg width="18px" height="18px" viewBox="0 0 18 18" xmlns="http://www.w3.org/2000/svg"> <g id="Vieja-repu---Nueva-UI" stroke="none" stroke-width="1" fill="none" fill-rule="evenodd"> <g id="Group-71-Copy-3" transform="translate(1.000000, 1.000000)"> <g id="Group-67"> <g id="Group-10"> <path d="M5.2173913,10.4347826 C5.2173913,10.4347826 8,13.6324506 10.7826087,10.4347826" id="Path-3-Copy-2" stroke="#333333" stroke-linecap="round" stroke-linejoin="round"></path> <path d="M13.6568328,2.34316716 C16.7810557,5.46739004 16.7810557,10.53261 13.6568328,13.6568328 C10.53261,16.7810557 5.46739004,16.7810557 2.34316716,13.6568328 C-0.78105572,10.53261 -0.78105572,5.46739004 2.34316716,2.34316716 C5.46739004,-0.78105572 10.53261,-0.78105572 13.6568328,2.34316716 L13.6568328,2.34316716 Z" id="Stroke-9-Copy-2" stroke="#333333" stroke-linecap="round"></path> <path d="M5.2173913,7.13043478 C5.2173913,7.61080539 4.82819669,8 4.34782609,8 C3.86745548,8 3.47826087,7.61080539 3.47826087,7.13043478 C3.47826087,6.65006418 3.86745548,6.26086957 4.34782609,6.26086957 C4.82819669,6.26086957 5.2173913,6.65006418 5.2173913,7.13043478" id="Fill-23-Copy-2" fill="#333333"></path> <path d="M11.6521739,8 C11.1718033,8 10.7826087,7.61080539 10.7826087,7.13043478 C10.7826087,6.65006418 11.1718033,6.26086957 11.6521739,6.26086957 C12.1325445,6.26086957 12.5217391,6.65006418 12.5217391,7.13043478 C12.5217391,7.61080539 12.1325445,8 11.6521739,8 Z" id="Fill-27-Copy-2" fill="#333333"></path> </g> </g> </g> </g></svg>