<?xml version="1.0" ?><svg id="Layer_1" style="enable-background:new 1 -1 100 100;" version="1.1" viewBox="1 -1 100 100" xml:space="preserve" xmlns="http://www.w3.org/2000/svg" xmlns:xlink="http://www.w3.org/1999/xlink"><title/><path d="M82,9.5H20c-5.5,0-10,4.5-10,10v42c0,5.5,4.5,10,10,10h8v17l25-17h29c5.5,0,10-4.5,10-10v-42C92,14,87.5,9.5,82,9.5z   M31.8,29.5h20.4c1.7,0,3,1.3,3,3s-1.3,3-3,3H31.8c-1.6,0-3-1.3-3-3C28.8,30.9,30.1,29.5,31.8,29.5z M68.2,49.5H31.8  c-1.6,0-3-1.3-3-3c0-1.6,1.3-3,3-3h36.4c1.7,0,3,1.3,3,3S69.9,49.5,68.2,49.5z"/></svg>