<!-- Generator: Adobe Illustrator 24.0.0, SVG Export Plug-In  -->
<svg version="1.1" xmlns="http://www.w3.org/2000/svg" xmlns:xlink="http://www.w3.org/1999/xlink" x="0px" y="0px" width="41.65px"
	 height="35.48px" viewBox="0 0 41.65 35.48" style="enable-background:new 0 0 41.65 35.48;" xml:space="preserve">
<style type="text/css">
	.st0{fill:#2EC3E8;}
	.st1{opacity:0.4;fill:#AFAFAF;enable-background:new    ;}
	.st2{fill:#FFFFFF;}
	.st3{fill:#454545;}
</style>
<defs>
</defs>
<g id="giftbox-giftbox_2_">
	<g id="giftbox-giftbox_3_">
		<g>
			<rect x="24.68" y="0.78" class="st0" width="16.19" height="7.71"/>
			<rect x="16.97" y="0.78" class="st1" width="7.71" height="7.71"/>
			<rect x="16.97" y="8.49" class="st1" width="7.71" height="26.21"/>
			<rect x="0.78" y="0.78" class="st0" width="16.19" height="7.71"/>
			<rect x="2.34" y="8.49" class="st2" width="14.63" height="26.21"/>
			<rect x="24.68" y="8.49" class="st2" width="14.72" height="26.21"/>
		</g>
		<g>
			<g>
				<polygon class="st3" points="17.75,34.7 16.91,34.7 16.91,0.78 17.75,0.78 				"/>
			</g>
			<g>
				<polygon class="st3" points="24.73,34.7 23.89,34.7 23.89,0.78 24.73,0.78 				"/>
			</g>
			<g>
				<path class="st3" d="M39.4,35.48H2.34c-0.43,0-0.78-0.35-0.78-0.78V8.49H2.4v26.15h36.94V8.49h0.84V34.7
					C40.19,35.13,39.83,35.48,39.4,35.48L39.4,35.48z"/>
			</g>
			<g>
				<path class="st3" d="M40.86,9.28H0.78C0.35,9.28,0,8.93,0,8.49V0.78C0,0.35,0.35,0,0.78,0h40.08c0.43,0,0.78,0.35,0.78,0.78
					v7.71C41.65,8.93,41.3,9.28,40.86,9.28L40.86,9.28z M0.84,8.43h39.96V0.84H0.84v6.86V8.43z"/>
			</g>
			<g>
				<path class="st2" d="M21.61,33.16h-1.57v-1.18h1.57V33.16L21.61,33.16z M21.61,30.41h-1.57v-1.57h1.57V30.41L21.61,30.41z
					 M21.61,27.27h-1.57V25.7h1.57V27.27L21.61,27.27z M21.61,24.13h-1.57v-1.57h1.57V24.13L21.61,24.13z M21.61,21h-1.57v-1.57
					h1.57V21L21.61,21z M21.61,17.86h-1.57v-1.57h1.57V17.86L21.61,17.86z M21.61,14.72h-1.57v-1.57h1.57V14.72L21.61,14.72z
					 M21.61,11.58h-1.57v-1.57h1.57V11.58L21.61,11.58z"/>
			</g>
		</g>
	</g>
</g>
<polygon class="st1" points="38.01,9.3 38.01,33.65 32.56,33.65 32.56,34.74 39.47,34.74 39.47,33.65 39.47,9.3 "/>
<rect x="39.47" y="0.84" class="st1" width="1.34" height="7.6"/>
</svg>
