<!-- Generator: Adobe Illustrator 24.0.0, SVG Export Plug-In  -->
<svg version="1.1" xmlns="http://www.w3.org/2000/svg" xmlns:xlink="http://www.w3.org/1999/xlink" x="0px" y="0px" width="85.51px"
	 height="35.42px" viewBox="0 0 85.51 35.42" style="enable-background:new 0 0 85.51 35.42;" xml:space="preserve">
<style type="text/css">
	.st0{opacity:0.4;}
	.st1{fill:none;stroke:#AFAFAF;stroke-width:0.5528;stroke-linecap:round;}
	.st2{fill-rule:evenodd;clip-rule:evenodd;fill:#2EC3E8;}
	.st3{opacity:0.4;fill-rule:evenodd;clip-rule:evenodd;fill:#AFAFAF;enable-background:new    ;}
	.st4{fill:none;stroke:#484848;stroke-width:0.6361;stroke-linecap:round;}
	.st5{fill:none;stroke:#484848;stroke-width:0.9542;stroke-linecap:round;}
</style>
<defs>
</defs>
<g id="Page-1_2_">
	<g id="HUB09-Copy-6_1_" transform="translate(-353.000000, -314.000000)">
		<g id="Group-6_1_" transform="translate(320.000000, 264.000000)">
			<g id="Group-12_1_" transform="translate(24.000000, 12.000000)">
				<g id="Page-1_3_" transform="translate(9.000000, 38.000000)">
					<g id="Group-7_1_" transform="translate(0.086111, 35.851362)" class="st0">
						<path id="Stroke-3_1_" class="st1" d="M0.19-0.89h75.93"/>
						<path id="Stroke-5_1_" class="st1" d="M79.8-0.71h5.34"/>
					</g>
					<path id="Fill-8_1_" class="st2" d="M80.89,25.55c0.03,5.46-8.81,7.11-12.77,8c-4.65,1.05-9.43,1.37-14.18,1.59
						c-5.91,0.28-11.89,0.04-17.81,0.04c-6.11,0.01-12.23,0-18.34,0h-6.4c0,0-3.84,0.34-3.27-2.48c0.63-3.13,0.42-5.06,2.11-5.06
						c0,0,10.84,0.02,26.12,2.43C51.63,32.48,75.13,28.63,80.89,25.55"/>
					<path id="Fill-10_1_" class="st2" d="M15.11,15.18c0,0,1.07-2.69,3.98-4.61l-2.57-2.98L14.58,5.3h-1.53L11.4,7.85l-1.34,5.36
						v0.76l2.2,0.7L15.11,15.18z"/>
					<path id="Fill-12_1_" class="st2" d="M39.46,26.38c0,0.75-0.61,1.37-1.37,1.37c-0.75,0-1.37-0.61-1.37-1.37
						c0-0.75,0.61-1.37,1.37-1.37C38.85,25.02,39.46,25.63,39.46,26.38"/>
					<path id="Fill-14_1_" class="st2" d="M46.02,26.38c0,0.75-0.61,1.37-1.37,1.37c-0.75,0-1.37-0.61-1.37-1.37
						c0-0.75,0.61-1.37,1.37-1.37C45.41,25.02,46.02,25.63,46.02,26.38"/>
					<path id="Fill-16_1_" class="st3" d="M9.23,20.54c0,0,8.7,0.4,11.71,2.21c3.01,1.81,3.06,3.44,3.39,4.68v0.81
						c0,0-7.79-1.59-14.11-0.58"/>
					<path id="Fill-18_1_" class="st3" d="M59.51,29.8c0,0,2.23-5.41,5.42-7.36c3.18-1.95,8.18-0.65,10.89-3.58
						c0,0,6,0.57,5.06,5.72c-0.94,5.15-0.45,1.51-0.45,1.51S68.72,29.84,59.51,29.8"/>
					<path id="Fill-20_1_" class="st3" d="M9.22,30.21c0,0,10.84,0.02,26.12,2.43c15.15,2.38,38.35-1.38,44.38-4.44
						c0.59-0.81,0.94-1.75,0.93-2.84c-5.76,3.07-29.26,6.93-44.54,4.52c-15.29-2.41-26.12-2.43-26.12-2.43
						c-1.32,0-1.48,1.17-1.79,3.17C8.43,30.36,8.76,30.21,9.22,30.21"/>
					<polygon id="Fill-22_1_" class="st3" points="47.58,30.83 57.9,19.77 60.01,19.77 50.07,30.76 					"/>
					<polygon id="Fill-24_1_" class="st3" points="27.87,24.94 40.63,12.06 42.67,12.57 28.95,26.65 					"/>
					<path id="Fill-26_1_" class="st2" d="M30.45,8.34c0,0,3.08-11.83,8.64-7.31c5.56,4.53,4.2,3.65,4.2,3.65s-4.04-0.58-6.02,0.2
						c-1.98,0.78-7.21,4.64-7.21,4.64L30.45,8.34z"/>
					<path id="Stroke-28_1_" class="st4" d="M9.67,27.7c9.09-0.95,17.76,0.98,26.68,2.37c5.98,0.93,12.11,0.93,18.14,0.66
						c5.04-0.22,10.07-0.76,15.04-1.68c3.73-0.69,8.03-1.62,11.37-3.51"/>
					<path id="Stroke-30_1_" class="st5" d="M10.18,13.81c0,0,7.41,0.54,10.92,2.35c3.51,1.81,4.02,3.71,4.42,4.42
						c0.3,0.52,1.86,3.96,3.37,6.18"/>
					<path id="Stroke-32_1_" class="st5" d="M29.56,10.49c-3.14,2.6-10.36,2.61-13.13-2.1c-3.01-5.12-4.24-2.6-6.2,5.38"/>
					<path id="Stroke-34_1_" class="st5" d="M64.65,16.97c-2.03,2.46-5.04,3.36-8.13,3.08c-3.48-0.32-5.77-1.9-8.5-3.9
						c-1.52-1.11-3.48-3.2-5.36-3.59c-2.85-0.59-5.91,0.42-8.78-0.09c-1.61-0.29-3.13-0.87-4.38-1.95"/>
					<path id="Stroke-36_1_" class="st5" d="M30.45,9.53c0,0,7.22-7.63,13.73-4.33"/>
					<path id="Stroke-38_1_" class="st5" d="M45.12,9.96c-0.47,0.43-1.23,0.37-1.71-0.14C42.94,9.3,42.93,8.53,43.4,8.1l3.02-2.79
						c0.47-0.43,1.24-0.37,1.71,0.14c0.48,0.51,0.48,1.28,0.01,1.72L45.12,9.96L45.12,9.96z"/>
					<path id="Stroke-40_1_" class="st5" d="M49.38,12.44c-0.47,0.43-1.23,0.37-1.71-0.14c-0.48-0.51-0.48-1.28-0.01-1.72l2.37-2.05
						c0.47-0.43,1.23-0.37,1.71,0.14c0.48,0.51,0.48,1.28,0.01,1.72L49.38,12.44L49.38,12.44z"/>
					<path id="Stroke-42_1_" class="st5" d="M53.71,14.79c-0.42,0.48-1.19,0.5-1.72,0.03c-0.53-0.46-0.61-1.23-0.19-1.71l1.23-1.18
						c0.42-0.48,1.19-0.5,1.72-0.03c0.53,0.46,0.61,1.23,0.19,1.71L53.71,14.79L53.71,14.79z"/>
					<path id="Stroke-44_1_" class="st5" d="M58.24,15.61c0,0.65-0.53,1.18-1.18,1.18c-0.65,0-1.18-0.53-1.18-1.18
						s0.53-1.18,1.18-1.18C57.71,14.43,58.24,14.96,58.24,15.61L58.24,15.61z"/>
					<path id="Stroke-46_1_" class="st5" d="M42.4,12.84L28.89,26.76"/>
					<path id="Stroke-48_1_" class="st5" d="M47.58,30.9l9.69-10.69"/>
					<path id="Stroke-50_1_" class="st5" d="M80.89,25.57c0.03-2.67,0.8-5.56-4.37-6.46c-2.92-0.51-7.92-1.42-11.96-2.16"/>
				</g>
			</g>
		</g>
	</g>
</g>
</svg>
