<!-- Generator: Adobe Illustrator 24.0.0, SVG Export Plug-In  -->
<svg version="1.1" xmlns="http://www.w3.org/2000/svg" xmlns:xlink="http://www.w3.org/1999/xlink" x="0px" y="0px" width="75.85px"
	 height="49.77px" viewBox="0 0 75.85 49.77" style="enable-background:new 0 0 75.85 49.77;" xml:space="preserve">
<style type="text/css">
	.st0{fill-rule:evenodd;clip-rule:evenodd;fill:#2EC3E8;}
	.st1{opacity:0.4;fill:none;stroke:#AFAFAF;stroke-width:0.9542;stroke-linecap:round;enable-background:new    ;}
	.st2{fill:none;stroke:#484848;stroke-width:0.9542;stroke-linecap:round;}
	.st3{opacity:0.4;fill-rule:evenodd;clip-rule:evenodd;fill:#AFAFAF;enable-background:new    ;}
	.st4{fill:none;stroke:#484848;stroke-width:0.9542;stroke-linecap:round;stroke-linejoin:round;}
	.st5{fill:none;stroke:#484848;stroke-width:0.6278;stroke-linecap:round;stroke-linejoin:round;}
</style>
<defs>
</defs>
<g id="Page-1_1_">
	<g id="HUB09-Copy-6_2_" transform="translate(-843.000000, -300.000000)">
		<g id="Group-6_2_" transform="translate(320.000000, 264.000000)">
			<g id="Group-9_1_" transform="translate(513.000000, 12.000000)">
				<g id="Page-1_4_" transform="translate(11.000000, 25.000000)">
					<path id="Fill-3_1_" class="st0" d="M58.45,10.49c0,0.75-0.61,1.36-1.36,1.36s-1.36-0.61-1.36-1.36V4.87h2.73V10.49z"/>
					<path id="Fill-5_1_" class="st0" d="M62.34,7.29c0,0.75-0.61,1.36-1.36,1.36c-0.75,0-1.36-0.61-1.36-1.36V4.87h2.73V7.29z"/>
					<polygon id="Fill-7_1_" class="st0" points="27.17,37.85 67.85,37.85 67.85,14.99 27.17,14.99 					"/>
					<path id="Stroke-9_1_" class="st1" d="M10.31,48.09h64.07"/>
					<path id="Stroke-10_1_" class="st1" d="M6.7,48.09h-7.22"/>
					<path id="Stroke-11_1_" class="st2" d="M40.61,18.62c0,8.89,7.21,16.09,16.09,16.09c4.28,0,8.18-1.67,11.06-4.4"/>
					<path id="Fill-12_2_" class="st3" d="M56.71,34.7c-7.48,0-13.77-5.11-15.57-12.02h-0.52c0,8.89,7.21,16.09,16.09,16.09
						c3.9,0,7.47-1.39,10.26-3.69v-4.08C64.18,33.3,60.61,34.7,56.71,34.7"/>
					<path id="Stroke-13_1_" class="st2" d="M42.67,14.02c0,1.14-0.92,2.06-2.06,2.06c-1.14,0-2.06-0.92-2.06-2.06
						s0.92-2.06,2.06-2.06C41.75,11.96,42.67,12.88,42.67,14.02L42.67,14.02z"/>
					<path id="Stroke-14_1_" class="st2" d="M67.85,4.98v41.07c0,1.21-0.98,2.19-2.19,2.19H29.72c-1.21,0-2.19-0.98-2.19-2.19v-3.48
						"/>
					<path id="Stroke-15_1_" class="st4" d="M27.48,33.49V5.5"/>
					<polygon id="Fill-16_2_" class="st3" points="28.05,47.65 30.6,47.65 30.6,5.05 28.05,5.05 					"/>
					<polygon id="Fill-17_1_" class="st0" points="6.78,48.38 24.02,48.38 24.02,36.64 6.78,36.64 					"/>
					<path id="Stroke-18_1_" class="st2" d="M21.04,34.09H6.4v-1.56c0-4,2.59-7.39,6.18-8.6V12.43c0-1.61,1.3-2.91,2.91-2.91
						c1.61,0,2.91,1.3,2.91,2.91v11.49c3.59,1.21,6.18,4.6,6.18,8.6v1.56"/>
					<path id="Stroke-19_1_" class="st5" d="M6.4,36.64h18.18"/>
					<polygon id="Fill-20_2_" class="st3" points="6.78,39.54 24.02,39.54 24.02,36.64 6.78,36.64 					"/>
					<polygon id="Fill-21_1_" class="st3" points="6.18,36.39 24.57,36.39 24.57,33.49 6.18,33.49 					"/>
					<path id="Stroke-22_1_" class="st2" d="M16.24,13.75c-0.21,0.19-0.49,0.31-0.8,0.31c-0.65,0-1.18-0.53-1.18-1.18
						c0-0.65,0.53-1.18,1.18-1.18c0.65,0,1.18,0.53,1.18,1.18"/>
					<polygon id="Fill-23_1_" class="st3" points="30.57,8.39 67.85,8.39 67.85,4.87 30.57,4.87 					"/>
					<polyline id="Stroke-24_1_" class="st2" points="50.15,4.98 24.51,4.98 24.51,-0.52 70.16,-0.52 70.16,4.98 67.85,4.98 					
						"/>
					<polyline id="Stroke-25_1_" class="st2" points="6.78,48.29 10.56,48.29 10.56,43.16 					"/>
					<polyline id="Stroke-26_1_" class="st2" points="10.94,48.29 12.16,48.29 12.16,45.73 					"/>
					<path id="Stroke-27_1_" class="st2" d="M11.78,48.09h12.25"/>
				</g>
			</g>
		</g>
	</g>
</g>
</svg>
